STARTFONT 2.1
FONT -Monotype-Courier-Bold-I-Normal--24-240-75-75-M-128-iso8859-4
SIZE 24 75 75
FONTBOUNDINGBOX 20 27 -1 -7

STARTPROPERTIES 24
FOUNDRY "Monotype"
FAMILY_NAME "Courier"
WEIGHT_NAME "Bold"
SLANT "I"
SETWIDTH_NAME "Normal"
ADD_STYLE_NAME ""
PIXEL_SIZE 24
POINT_SIZE 240
RESOLUTION_X 75
RESOLUTION_Y 75
SPACING "M"
AVERAGE_WIDTH 128
CHARSET_REGISTRY "iso8859"
CHARSET_ENCODING "4"
FACE_NAME "Courier Bold Italic ISO Latin4"
_DEC_DEVICE_FONTNAMES "PS=courier-bit-lat4"
COPYRIGHT "Copyright (c) 1993 Monotype Typography Ltd."
CAP_HEIGHT 15
X_HEIGHT 11
WEIGHT 10
QUAD_WIDTH 15
DEFAULT_CHAR 160
FONT_DESCENT 7
FONT_ASCENT 20
ENDPROPERTIES

CHARS 191

STARTCHAR space
ENCODING 32
SWIDTH 600 0
DWIDTH 15 0
BBX 0 0 0 0
BITMAP
ENDCHAR

STARTCHAR exclam
ENCODING 33
SWIDTH 600 0
DWIDTH 15 0
BBX 6 16 6 0
BITMAP
0C
1C
3C
3C
3C
38
38
30
70
70
20
00
00
60
E0
C0
ENDCHAR

STARTCHAR quotedbl
ENCODING 34
SWIDTH 600 0
DWIDTH 15 0
BBX 9 7 6 8
BITMAP
F380
E300
E700
E700
C600
C600
8600
ENDCHAR

STARTCHAR numbersign
ENCODING 35
SWIDTH 600 0
DWIDTH 15 0
BBX 13 20 3 -3
BITMAP
0230
0770
0670
0E60
0E60
0CE0
3FF0
7FF8
3FF0
19C0
3980
FFE0
FFE0
BFC0
7300
7700
6700
E600
E600
4400
ENDCHAR

STARTCHAR dollar
ENCODING 36
SWIDTH 600 0
DWIDTH 15 0
BBX 13 21 2 -3
BITMAP
0080
01C0
01C0
07F8
0FF8
1C78
3830
3800
3F00
1FE0
07F0
0070
6070
E060
F1E0
FFC0
FF80
0C00
1C00
1C00
1800
ENDCHAR

STARTCHAR percent
ENCODING 37
SWIDTH 600 0
DWIDTH 15 0
BBX 12 16 4 0
BITMAP
1F00
3380
2180
6180
6300
3E10
09F0
1F00
FF00
8F80
18C0
30C0
30C0
3180
1F00
0E00
ENDCHAR

STARTCHAR ampersand
ENCODING 38
SWIDTH 600 0
DWIDTH 15 0
BBX 12 15 3 0
BITMAP
03A0
07E0
0FE0
1C40
1C00
1C00
0E00
3E60
7EF0
7760
E7C0
E380
FFE0
7FE0
3DC0
ENDCHAR

STARTCHAR quoteright
ENCODING 39
SWIDTH 600 0
DWIDTH 15 0
BBX 7 8 6 8
BITMAP
1E
1C
38
30
70
60
C0
40
ENDCHAR

STARTCHAR parenleft
ENCODING 40
SWIDTH 600 0
DWIDTH 15 0
BBX 8 20 7 -4
BITMAP
03
07
0E
1C
1C
38
38
70
70
60
E0
E0
E0
E0
E0
E0
70
70
70
20
ENDCHAR

STARTCHAR parenright
ENCODING 41
SWIDTH 600 0
DWIDTH 15 0
BBX 8 20 2 -4
BITMAP
04
0E
0E
0E
07
07
07
07
07
07
07
0E
0E
0C
1C
38
38
70
E0
40
ENDCHAR

STARTCHAR asterisk
ENCODING 42
SWIDTH 600 0
DWIDTH 15 0
BBX 11 11 4 5
BITMAP
0300
0700
0700
6660
FFE0
7FE0
0F00
1F00
3B80
7380
6100
ENDCHAR

STARTCHAR plus
ENCODING 43
SWIDTH 600 0
DWIDTH 15 0
BBX 13 15 3 0
BITMAP
0100
0380
0300
0300
0700
0700
FFF0
FFF8
F7F0
0E00
0E00
0C00
0C00
0C00
0800
ENDCHAR

STARTCHAR comma
ENCODING 44
SWIDTH 600 0
DWIDTH 15 0
BBX 7 7 4 -4
BITMAP
1E
1C
38
30
60
60
C0
ENDCHAR

STARTCHAR minus
ENCODING 45
SWIDTH 600 0
DWIDTH 15 0
BBX 13 3 3 6
BITMAP
FFF0
FFF8
FFF0
ENDCHAR

STARTCHAR period
ENCODING 46
SWIDTH 600 0
DWIDTH 15 0
BBX 4 3 6 0
BITMAP
70
F0
E0
ENDCHAR

STARTCHAR slash
ENCODING 47
SWIDTH 600 0
DWIDTH 15 0
BBX 15 21 2 -3
BITMAP
0006
000C
001C
0038
0038
0070
00E0
00E0
01C0
0380
0300
0700
0E00
0C00
1C00
3800
3000
7000
E000
C000
8000
ENDCHAR

STARTCHAR zero
ENCODING 48
SWIDTH 600 0
DWIDTH 15 0
BBX 12 16 3 0
BITMAP
0380
0FE0
1FE0
3870
3070
7070
7070
6060
6060
E0E0
E0E0
E0C0
E1C0
7F80
7F00
1C00
ENDCHAR

STARTCHAR one
ENCODING 49
SWIDTH 600 0
DWIDTH 15 0
BBX 11 16 2 0
BITMAP
0040
07C0
1FC0
1D80
0180
0180
0380
0380
0300
0300
0700
0700
0700
7FE0
FFE0
7FC0
ENDCHAR

STARTCHAR two
ENCODING 50
SWIDTH 600 0
DWIDTH 15 0
BBX 14 16 1 0
BITMAP
01E0
07F8
0FFC
1C1C
181C
001C
0038
0070
01E0
03C0
0F00
1E00
7000
FFF0
FFF0
FFE0
ENDCHAR

STARTCHAR three
ENCODING 51
SWIDTH 600 0
DWIDTH 15 0
BBX 14 16 2 0
BITMAP
01E0
07F8
0FFC
0C1C
001C
0038
01F8
03E0
03F0
0038
0038
0038
2070
FFF0
7FC0
1F00
ENDCHAR

STARTCHAR four
ENCODING 52
SWIDTH 600 0
DWIDTH 15 0
BBX 12 16 3 0
BITMAP
00F0
01E0
03E0
03E0
0760
0EC0
1CC0
39C0
39C0
6180
FFC0
FFE0
F380
0F80
1FC0
0F80
ENDCHAR

STARTCHAR five
ENCODING 53
SWIDTH 600 0
DWIDTH 15 0
BBX 14 16 2 0
BITMAP
0FF8
0FFC
0FF8
0C00
0C00
1DC0
1FF0
1FF8
1838
0038
0038
0030
6070
FFE0
7FC0
1E00
ENDCHAR

STARTCHAR six
ENCODING 54
SWIDTH 600 0
DWIDTH 15 0
BBX 13 16 4 0
BITMAP
00F0
03F8
0FF0
1E00
3C00
3800
6700
7FC0
FFC0
F0E0
E0E0
E0E0
E1C0
7FC0
7F80
1C00
ENDCHAR

STARTCHAR seven
ENCODING 55
SWIDTH 600 0
DWIDTH 15 0
BBX 11 16 5 0
BITMAP
FFE0
FFE0
FEE0
C1C0
01C0
0380
0300
0700
0600
0E00
1C00
1C00
3800
3800
7000
2000
ENDCHAR

STARTCHAR eight
ENCODING 56
SWIDTH 600 0
DWIDTH 15 0
BBX 13 16 2 0
BITMAP
03C0
0FF0
1FF8
1838
3838
3830
3FF0
1FC0
3FE0
70F0
6070
E070
E0E0
7FE0
7F80
1E00
ENDCHAR

STARTCHAR nine
ENCODING 57
SWIDTH 600 0
DWIDTH 15 0
BBX 13 16 3 0
BITMAP
01C0
07F0
0FF0
1C38
1838
3838
3838
38F8
1FF0
1FB0
0670
00E0
03C0
7F80
FE00
7800
ENDCHAR

STARTCHAR colon
ENCODING 58
SWIDTH 600 0
DWIDTH 15 0
BBX 6 11 6 0
BITMAP
1C
3C
38
00
00
00
00
00
70
F0
E0
ENDCHAR

STARTCHAR semicolon
ENCODING 59
SWIDTH 600 0
DWIDTH 15 0
BBX 8 13 3 -2
BITMAP
07
0F
0E
00
00
00
00
1C
38
30
60
40
C0
ENDCHAR

STARTCHAR less
ENCODING 60
SWIDTH 600 0
DWIDTH 15 0
BBX 16 14 1 0
BITMAP
0007
001F
007C
01F0
07C0
1F00
F800
7C00
1F00
0FC0
03E0
00F8
0078
0018
ENDCHAR

STARTCHAR equal
ENCODING 61
SWIDTH 600 0
DWIDTH 15 0
BBX 15 8 2 3
BITMAP
7FFC
7FFE
7FFC
0000
0000
FFF8
FFFC
FFF8
ENDCHAR

STARTCHAR greater
ENCODING 62
SWIDTH 600 0
DWIDTH 15 0
BBX 16 14 1 0
BITMAP
1C00
1E00
0F80
07E0
01F0
00FC
001F
007E
01F8
07E0
1F80
7E00
F800
6000
ENDCHAR

STARTCHAR question
ENCODING 63
SWIDTH 600 0
DWIDTH 15 0
BBX 11 15 5 0
BITMAP
0F00
7FC0
7FE0
E0E0
E0E0
00E0
03C0
0F80
1E00
1800
1800
0000
3000
7800
3000
ENDCHAR

STARTCHAR at
ENCODING 64
SWIDTH 600 0
DWIDTH 15 0
BBX 12 18 3 -2
BITMAP
03C0
0FE0
1C70
1830
3030
30F0
63E0
6760
6C60
6C60
CC40
C7E0
C3C0
C000
C000
E180
7F80
3E00
ENDCHAR

STARTCHAR A
ENCODING 65
SWIDTH 600 0
DWIDTH 15 0
BBX 16 15 0 0
BITMAP
07F0
07F0
06F0
01D8
01B8
03B8
0718
0618
0FFC
1FFC
1FFC
300C
FC3F
FC7F
FC3E
ENDCHAR

STARTCHAR B
ENCODING 66
SWIDTH 600 0
DWIDTH 15 0
BBX 15 15 1 0
BITMAP
1FF0
3FFC
1FFE
0E0E
0C0E
0C1C
1FFC
1FF8
1FFC
1C0E
380E
380E
FFFC
FFF8
FFE0
ENDCHAR

STARTCHAR C
ENCODING 67
SWIDTH 600 0
DWIDTH 15 0
BBX 15 15 2 0
BITMAP
01E0
07FE
1FFE
3C1E
380C
700C
6000
6000
E000
E000
E000
7038
7FF8
3FE0
0F80
ENDCHAR

STARTCHAR D
ENCODING 68
SWIDTH 600 0
DWIDTH 15 0
BBX 15 15 2 0
BITMAP
1FE0
3FF8
1FFC
0C1E
1C0E
1C0E
180E
180E
380C
381C
301C
3038
FFF0
FFE0
FF00
ENDCHAR

STARTCHAR E
ENCODING 69
SWIDTH 600 0
DWIDTH 15 0
BBX 15 15 1 0
BITMAP
1FFE
3FFE
1FFE
0C0E
0C4C
1CE4
1FC0
1FC0
1FC0
19C8
381C
301C
FFF8
FFF8
FFF8
ENDCHAR

STARTCHAR F
ENCODING 70
SWIDTH 600 0
DWIDTH 15 0
BBX 17 15 1 0
BITMAP
0FFF80
1FFF80
0FFF00
060300
0E3700
0E6200
0FE000
0FE000
0FE000
1CE000
1C4000
1C0000
7F8000
FF8000
7F8000
ENDCHAR

STARTCHAR G
ENCODING 71
SWIDTH 600 0
DWIDTH 15 0
BBX 15 15 2 0
BITMAP
01F6
07FE
1FDE
3C0C
300C
7000
6000
60FC
E1FC
E1DC
E038
7038
7FF0
3FF0
0F80
ENDCHAR

STARTCHAR H
ENCODING 72
SWIDTH 600 0
DWIDTH 15 0
BBX 16 15 1 0
BITMAP
0F9F
1FBF
1F1E
0C0C
0C1C
1C1C
1FFC
1FF8
1FF8
3838
3838
3030
7CF8
FDFC
F8F8
ENDCHAR

STARTCHAR I
ENCODING 73
SWIDTH 600 0
DWIDTH 15 0
BBX 14 15 2 0
BITMAP
0FFC
1FFC
1FF8
0180
0380
0380
0380
0300
0300
0700
0700
0600
7FE0
FFE0
7FC0
ENDCHAR

STARTCHAR J
ENCODING 74
SWIDTH 600 0
DWIDTH 15 0
BBX 16 15 2 0
BITMAP
01FF
03FF
03FE
0038
0030
0030
0070
0070
6070
E060
E0E0
E0E0
FFC0
7F80
1C00
ENDCHAR

STARTCHAR K
ENCODING 75
SWIDTH 600 0
DWIDTH 15 0
BBX 17 15 1 0
BITMAP
1F9F80
3F9F00
1F9F00
0C3C00
0CF000
1DE000
1F8000
1FC000
1EE000
18F000
387000
307000
FC3C00
FE3C00
FC3C00
ENDCHAR

STARTCHAR L
ENCODING 76
SWIDTH 600 0
DWIDTH 15 0
BBX 15 15 1 0
BITMAP
1FF0
1FE0
1BE0
0700
0700
0600
0600
0600
0E06
0E0C
0C0C
0C0C
7FFC
FFFC
7FF8
ENDCHAR

STARTCHAR M
ENCODING 77
SWIDTH 600 0
DWIDTH 15 0
BBX 18 15 0 0
BITMAP
1E03C0
1F07C0
1F07C0
0F0F00
1F1F00
1D9B00
1BBB00
1BB700
39E600
39E600
39CE00
300E00
7C3F00
FC7F00
FC3E00
ENDCHAR

STARTCHAR N
ENCODING 78
SWIDTH 600 0
DWIDTH 15 0
BBX 17 15 1 0
BITMAP
3E1F00
3E3F80
3F1F00
1F0E00
1F0E00
1B8C00
1B8C00
39DC00
39DC00
30E800
30F800
30F800
FC7800
FC7800
F83000
ENDCHAR

STARTCHAR O
ENCODING 79
SWIDTH 600 0
DWIDTH 15 0
BBX 15 15 2 0
BITMAP
01E0
07F8
1FFC
1C1C
380E
700E
600E
E00E
E00C
E01C
E038
7070
7FE0
3FC0
0F00
ENDCHAR

STARTCHAR P
ENCODING 80
SWIDTH 600 0
DWIDTH 15 0
BBX 15 15 1 0
BITMAP
1FF0
3FFC
1FFE
0E0E
0C0E
0C0E
1C1C
1FF8
1FF0
1FC0
1800
3800
7F00
FF80
FF00
ENDCHAR

STARTCHAR Q
ENCODING 81
SWIDTH 600 0
DWIDTH 15 0
BBX 15 19 2 -4
BITMAP
01E0
07F8
0FFC
1C1C
380E
700E
600E
E00E
E00C
E01C
E018
7038
78F0
3FE0
1F80
3E10
7FF8
7FF0
60C0
ENDCHAR

STARTCHAR R
ENCODING 82
SWIDTH 600 0
DWIDTH 15 0
BBX 15 15 1 0
BITMAP
1FF0
3FFC
1FFE
0E0E
0C0E
0C1C
1FF8
1FE0
1FF0
1870
1838
3838
7E1E
FE1E
FC0C
ENDCHAR

STARTCHAR S
ENCODING 83
SWIDTH 600 0
DWIDTH 15 0
BBX 14 15 2 0
BITMAP
01E0
07FC
1FFC
181C
3818
3800
1F80
1FF0
03F8
0038
6038
E070
FFF0
FFC0
0F00
ENDCHAR

STARTCHAR T
ENCODING 84
SWIDTH 600 0
DWIDTH 15 0
BBX 14 15 3 0
BITMAP
7FFC
7FFC
7FFC
E318
E718
C738
4710
0600
0600
0E00
0E00
0C00
7F80
FF80
7F80
ENDCHAR

STARTCHAR U
ENCODING 85
SWIDTH 600 0
DWIDTH 15 0
BBX 15 15 3 0
BITMAP
7E7E
7EFE
7C7C
3018
7038
7038
7030
6030
6070
E070
E060
E0E0
7FC0
3F80
1E00
ENDCHAR

STARTCHAR V
ENCODING 86
SWIDTH 600 0
DWIDTH 15 0
BBX 17 15 2 0
BITMAP
7E3F80
FE3F00
7C2F00
381C00
381800
383800
187000
1C6000
1CE000
1DC000
1D8000
0F8000
0F0000
0F0000
0E0000
ENDCHAR

STARTCHAR W
ENCODING 87
SWIDTH 600 0
DWIDTH 15 0
BBX 16 15 2 0
BITMAP
7E3F
7E3F
7C3E
700E
738C
739C
77D8
77D8
6ED8
6DD0
7DF0
79F0
70E0
F0E0
E0E0
ENDCHAR

STARTCHAR X
ENCODING 88
SWIDTH 600 0
DWIDTH 15 0
BBX 16 15 1 0
BITMAP
1F1F
3F1F
1E1F
0E1C
0738
07F0
03E0
03C0
07E0
0F60
1C70
3830
F87C
FCFC
F8F8
ENDCHAR

STARTCHAR Y
ENCODING 89
SWIDTH 600 0
DWIDTH 15 0
BBX 14 15 3 0
BITMAP
7C7C
FC7C
787C
3870
1CE0
1DC0
0F80
0F00
0600
0E00
0E00
0C00
7F80
FF80
7F80
ENDCHAR

STARTCHAR Z
ENCODING 90
SWIDTH 600 0
DWIDTH 15 0
BBX 14 15 2 0
BITMAP
1FFC
1FFC
1FB8
1878
18F0
19E0
0380
0700
0E00
1C30
3830
7070
FFF0
FFF0
FFE0
ENDCHAR

STARTCHAR bracketleft
ENCODING 91
SWIDTH 600 0
DWIDTH 15 0
BBX 10 20 5 -4
BITMAP
07C0
0FC0
0F80
0C00
0C00
1C00
1C00
1C00
1800
1800
3800
3800
3000
3000
3000
7000
7000
7C00
7C00
FC00
ENDCHAR

STARTCHAR backslash
ENCODING 92
SWIDTH 600 0
DWIDTH 15 0
BBX 7 21 6 -3
BITMAP
C0
C0
E0
E0
E0
E0
70
70
70
30
38
38
38
18
1C
1C
1C
0C
0E
0E
04
ENDCHAR

STARTCHAR bracketright
ENCODING 93
SWIDTH 600 0
DWIDTH 15 0
BBX 9 20 3 -4
BITMAP
0F80
1F80
0F80
0300
0300
0300
0700
0700
0600
0600
0E00
0E00
0E00
0C00
0C00
1C00
1C00
F800
F800
F800
ENDCHAR

STARTCHAR asciicircum
ENCODING 94
SWIDTH 600 0
DWIDTH 15 0
BBX 11 9 4 8
BITMAP
0100
0300
0700
0F80
1DC0
39C0
71E0
E0E0
C040
ENDCHAR

STARTCHAR underscore
ENCODING 95
SWIDTH 600 0
DWIDTH 15 0
BBX 15 1 0 -3
BITMAP
FFFE
ENDCHAR

STARTCHAR quoteleft
ENCODING 96
SWIDTH 600 0
DWIDTH 15 0
BBX 4 8 8 8
BITMAP
F0
70
70
70
30
30
30
10
ENDCHAR

STARTCHAR a
ENCODING 97
SWIDTH 600 0
DWIDTH 15 0
BBX 13 11 1 0
BITMAP
03E0
1FF0
1C78
0038
1FF0
7FB0
7070
E0F0
FFF8
7FF8
1C78
ENDCHAR

STARTCHAR b
ENCODING 98
SWIDTH 600 0
DWIDTH 15 0
BBX 16 16 0 0
BITMAP
0F00
1F00
1E00
0600
0600
0EF8
0FFC
0FFE
0E07
1C07
1C07
1C06
1C0E
7FFC
FFF8
7BC0
ENDCHAR

STARTCHAR c
ENCODING 99
SWIDTH 600 0
DWIDTH 15 0
BBX 14 11 2 0
BITMAP
03CC
1FF8
3F78
7838
7010
E000
E000
E018
7FF0
3FE0
0F80
ENDCHAR

STARTCHAR d
ENCODING 100
SWIDTH 600 0
DWIDTH 15 0
BBX 15 16 2 0
BITMAP
001E
003E
003E
000C
000C
07CC
1FFC
3FFC
7838
7038
E038
E038
E070
7FFC
3FFC
0E78
ENDCHAR

STARTCHAR e
ENCODING 101
SWIDTH 600 0
DWIDTH 15 0
BBX 14 11 1 0
BITMAP
03C0
0FF0
3FF8
701C
7FFC
FFFC
FFF8
E000
7FF8
3FF0
0F80
ENDCHAR

STARTCHAR f
ENCODING 102
SWIDTH 600 0
DWIDTH 15 0
BBX 15 16 2 0
BITMAP
007C
01FE
03FE
0300
0700
1FF8
3FF8
1FF0
0600
0E00
0E00
0C00
0C00
7FE0
FFE0
7FC0
ENDCHAR

STARTCHAR g
ENCODING 103
SWIDTH 600 0
DWIDTH 15 0
BBX 15 16 2 -5
BITMAP
079E
1FFE
3FFC
7078
6038
E030
E070
E0F0
7FF0
3FE0
1E60
00E0
00C0
3FC0
7F80
7E00
ENDCHAR

STARTCHAR h
ENCODING 104
SWIDTH 600 0
DWIDTH 15 0
BBX 14 16 1 0
BITMAP
1F00
1E00
1600
0E00
0E00
0EF0
0FF8
0FFC
1E1C
1C1C
1C18
1818
3838
7C7C
FCFC
7C78
ENDCHAR

STARTCHAR i
ENCODING 105
SWIDTH 600 0
DWIDTH 15 0
BBX 12 16 2 0
BITMAP
01C0
0380
0380
0000
0000
1F80
1F80
1F80
0300
0300
0700
0700
0600
7FE0
FFF0
FFE0
ENDCHAR

STARTCHAR j
ENCODING 106
SWIDTH 600 0
DWIDTH 15 0
BBX 13 21 1 -5
BITMAP
0070
0070
0070
0000
0000
0FF8
1FF8
0FF0
0030
0070
0070
0060
0060
00E0
00E0
00E0
00C0
01C0
7F80
FF00
7C00
ENDCHAR

STARTCHAR k
ENCODING 107
SWIDTH 600 0
DWIDTH 15 0
BBX 14 16 1 0
BITMAP
0F00
1F00
1E00
0600
0E00
0E7C
0CFC
0CFC
0DC0
1F00
1F80
1DC0
19E0
78F8
F9FC
78F8
ENDCHAR

STARTCHAR l
ENCODING 108
SWIDTH 600 0
DWIDTH 15 0
BBX 12 16 2 0
BITMAP
0FC0
0FC0
0FC0
0180
0180
0180
0380
0380
0300
0300
0700
0700
0600
7FE0
FFF0
FFE0
ENDCHAR

STARTCHAR m
ENCODING 109
SWIDTH 600 0
DWIDTH 15 0
BBX 16 11 0 0
BITMAP
3D8C
3FFF
3EF7
18E7
38C6
39C6
31CE
31CE
79CF
F9EF
FBCE
ENDCHAR

STARTCHAR n
ENCODING 110
SWIDTH 600 0
DWIDTH 15 0
BBX 14 11 1 0
BITMAP
1EF0
3FF8
0F3C
1C1C
1C1C
1818
1818
3838
7C7C
FCFC
7C78
ENDCHAR

STARTCHAR o
ENCODING 111
SWIDTH 600 0
DWIDTH 15 0
BBX 14 11 2 0
BITMAP
03C0
0FF0
3FF8
783C
601C
E01C
E018
F078
7FF0
3FC0
0F00
ENDCHAR

STARTCHAR p
ENCODING 112
SWIDTH 600 0
DWIDTH 15 0
BBX 17 16 -1 -5
BITMAP
0F3800
1FFE00
0FCF00
070380
0E0380
0E0380
0E0300
0F0700
0FFE00
1FF800
1CE000
180000
180000
7E0000
FF0000
FE0000
ENDCHAR

STARTCHAR q
ENCODING 113
SWIDTH 600 0
DWIDTH 15 0
BBX 16 16 2 -5
BITMAP
03DE
1FFF
3FFE
7838
6038
E038
E038
F070
7FF0
3FF0
0E70
0060
0060
03F0
07F8
07F0
ENDCHAR

STARTCHAR r
ENCODING 114
SWIDTH 600 0
DWIDTH 15 0
BBX 14 11 2 0
BITMAP
1E38
3EFC
1FFC
0F80
0E00
0C00
1C00
1C00
FFE0
FFC0
FFC0
ENDCHAR

STARTCHAR s
ENCODING 115
SWIDTH 600 0
DWIDTH 15 0
BBX 13 11 2 0
BITMAP
03D0
0FF8
1F70
3830
3F80
1FE0
00F0
6070
73E0
FFC0
CF00
ENDCHAR

STARTCHAR t
ENCODING 116
SWIDTH 600 0
DWIDTH 15 0
BBX 12 15 3 0
BITMAP
0C00
0C00
1C00
1C00
7FF0
FFE0
7FE0
3800
3800
3000
3000
7020
7FE0
3FC0
1E00
ENDCHAR

STARTCHAR u
ENCODING 117
SWIDTH 600 0
DWIDTH 15 0
BBX 12 11 3 0
BITMAP
F8F0
F1F0
F0F0
7070
7060
6060
60E0
E0E0
E7F0
7FF0
38E0
ENDCHAR

STARTCHAR v
ENCODING 118
SWIDTH 600 0
DWIDTH 15 0
BBX 15 11 2 0
BITMAP
7E7E
FEFE
7C3C
3870
3860
18E0
1DC0
1D80
0F80
0F00
0E00
ENDCHAR

STARTCHAR w
ENCODING 119
SWIDTH 600 0
DWIDTH 15 0
BBX 15 11 2 0
BITMAP
783E
FC7E
783C
7398
77B8
77B0
7DF0
7DE0
79E0
79C0
71C0
ENDCHAR

STARTCHAR x
ENCODING 120
SWIDTH 600 0
DWIDTH 15 0
BBX 15 11 1 0
BITMAP
1F3E
3F7E
1E3C
0FF0
03E0
07C0
0FE0
1870
FCF8
FCFC
F8F8
ENDCHAR

STARTCHAR y
ENCODING 121
SWIDTH 600 0
DWIDTH 15 0
BBX 17 16 0 -5
BITMAP
1F0F00
1F1F80
1C1F00
0E0C00
0E1C00
063800
077000
076000
07E000
03C000
038000
070000
070000
7F8000
FF0000
FF0000
ENDCHAR

STARTCHAR z
ENCODING 122
SWIDTH 600 0
DWIDTH 15 0
BBX 13 11 2 0
BITMAP
1FF8
3FF8
3E70
39E0
03C0
0700
0E00
3820
7FF0
FFE0
FFE0
ENDCHAR

STARTCHAR braceleft
ENCODING 123
SWIDTH 600 0
DWIDTH 15 0
BBX 8 20 5 -4
BITMAP
03
0F
0F
1C
1C
18
18
38
38
F0
F0
30
30
30
70
60
60
78
78
30
ENDCHAR

STARTCHAR bar
ENCODING 124
SWIDTH 600 0
DWIDTH 15 0
BBX 3 20 6 -4
BITMAP
40
E0
E0
E0
E0
E0
E0
E0
E0
E0
E0
E0
E0
E0
E0
E0
E0
E0
E0
40
ENDCHAR

STARTCHAR braceright
ENCODING 125
SWIDTH 600 0
DWIDTH 15 0
BBX 8 20 4 -4
BITMAP
0C
1E
0E
06
06
0E
0C
0C
0C
0F
0F
1C
18
18
18
38
38
F0
E0
C0
ENDCHAR

STARTCHAR asciitilde
ENCODING 126
SWIDTH 600 0
DWIDTH 15 0
BBX 12 6 3 4
BITMAP
1800
3E30
FF70
E7E0
C7C0
0180
ENDCHAR

STARTCHAR space
ENCODING 160
SWIDTH 600 0
DWIDTH 16 0
BBX 0 0 0 0
BITMAP
ENDCHAR

STARTCHAR Aogonek
ENCODING 161
SWIDTH 600 0
DWIDTH 15 0
BBX 17 18 -1 -3
BITMAP
03F800
07F800
03F800
00F800
01D800
039C00
039C00
061C00
07FC00
0FFC00
1FFE00
180E00
7E3F00
FE3F00
7C3600
000C00
000F80
000700
ENDCHAR

STARTCHAR afii240
ENCODING 162
SWIDTH 600 0
DWIDTH 15 0
BBX 14 11 1 0
BITMAP
3E7C
3CFC
3CF8
1DC0
1F00
1F80
1BC0
39E0
7CF8
FC78
F878
ENDCHAR

STARTCHAR Rcommaaccent
ENCODING 163
SWIDTH 600 0
DWIDTH 15 0
BBX 15 21 1 -6
BITMAP
1FF0
3FFC
1FFE
0C0E
0C0E
1C1C
1FF8
1FE0
1FF0
1870
3878
3038
FE1E
FE1E
FC0C
0000
0700
0700
0200
0E00
0400
ENDCHAR

STARTCHAR currency
ENCODING 164
SWIDTH 600 0
DWIDTH 15 0
BBX 12 12 3 1
BITMAP
1010
7730
3FF0
3FE0
38E0
70E0
70E0
71C0
7FC0
FFE0
CCC0
8040
ENDCHAR

STARTCHAR Itilde
ENCODING 165
SWIDTH 600 0
DWIDTH 15 0
BBX 14 18 2 0
BITMAP
0788
04F0
0000
0FFC
1FFC
1FF8
0180
0380
0380
0380
0300
0300
0700
0700
0600
7FE0
FFE0
7FC0
ENDCHAR

STARTCHAR Lcommaaccent
ENCODING 166
SWIDTH 600 0
DWIDTH 15 0
BBX 14 21 1 -6
BITMAP
1FE0
1FE0
1FE0
0700
0700
0600
0600
0E00
0E04
0C0C
0C0C
0C1C
7FFC
FFFC
7FF8
0000
0700
0700
0200
0E00
0400
ENDCHAR

STARTCHAR section
ENCODING 167
SWIDTH 600 0
DWIDTH 15 0
BBX 14 18 2 -2
BITMAP
01FC
07FC
060C
0C08
1C00
3F00
6780
61E0
70F0
3C38
1E18
0798
01F0
00C0
40C0
C180
FF80
FE00
ENDCHAR

STARTCHAR hungarumlaut
ENCODING 168
SWIDTH 600 0
DWIDTH 15 0
BBX 9 4 6 13
BITMAP
1980
3300
6600
C800
ENDCHAR

STARTCHAR Scaron
ENCODING 169
SWIDTH 600 0
DWIDTH 15 0
BBX 14 19 2 0
BITMAP
030C
039C
00F0
0000
01E0
07FC
1FFC
181C
3818
3800
1F80
1FF0
03F8
0038
6038
E070
FFF0
FFC0
0F00
ENDCHAR

STARTCHAR Emacron
ENCODING 170
SWIDTH 600 0
DWIDTH 15 0
BBX 15 18 1 0
BITMAP
03FC
0000
0000
1FFE
3FFE
1FFE
0C0E
0C4C
1CE4
1FC0
1FC0
1FC0
19C8
381C
301C
FFF8
FFF8
FFF8
ENDCHAR

STARTCHAR Gcommaaccent
ENCODING 171
SWIDTH 600 0
DWIDTH 15 0
BBX 15 21 2 -6
BITMAP
01E6
07FE
1F9E
380C
300C
7000
6000
60F8
E3FC
E1FC
E038
7038
7FF0
3FF0
0F80
0000
0E00
0E00
0400
0C00
0800
ENDCHAR

STARTCHAR afii237
ENCODING 172
SWIDTH 600 0
DWIDTH 15 0
BBX 14 15 3 0
BITMAP
7FFC
7FFC
7FFC
E318
E718
C738
0600
3FC0
7FC0
7FC0
0E00
0C00
7F80
FF80
7F80
ENDCHAR

STARTCHAR hyphen
ENCODING 173
SWIDTH 600 0
DWIDTH 15 0
BBX 11 2 4 6
BITMAP
FFE0
FFC0
ENDCHAR

STARTCHAR Zcaron
ENCODING 174
SWIDTH 600 0
DWIDTH 15 0
BBX 14 19 2 0
BITMAP
030C
01B8
00E0
0000
1FFC
1FFC
1FB8
1878
18F0
19E0
0380
0700
0E00
1C30
3830
7070
FFF0
FFF0
FFE0
ENDCHAR

STARTCHAR macron
ENCODING 175
SWIDTH 600 0
DWIDTH 15 0
BBX 8 1 6 13
BITMAP
FF
ENDCHAR

STARTCHAR degree
ENCODING 176
SWIDTH 600 0
DWIDTH 15 0
BBX 8 8 6 10
BITMAP
3C
7E
E7
C3
C3
E7
7E
3C
ENDCHAR

STARTCHAR aogonek
ENCODING 177
SWIDTH 600 0
DWIDTH 15 0
BBX 13 14 1 -3
BITMAP
03E0
1FF0
1C78
0038
1FF0
7FF0
7070
E0F0
FFF8
7FF8
1C70
00C0
00F8
0070
ENDCHAR

STARTCHAR ogonek
ENCODING 178
SWIDTH 600 0
DWIDTH 15 0
BBX 4 4 6 -4
BITMAP
60
C0
D0
F0
ENDCHAR

STARTCHAR rcommaaccent
ENCODING 179
SWIDTH 600 0
DWIDTH 15 0
BBX 15 17 2 -6
BITMAP
1F38
3F7E
1FFE
0780
0F00
0E00
0C00
0C00
7FC0
FFE0
7FC0
0000
0E00
0E00
0400
1C00
0800
ENDCHAR

STARTCHAR acute
ENCODING 180
SWIDTH 600 0
DWIDTH 15 0
BBX 5 4 8 13
BITMAP
08
18
30
E0
ENDCHAR

STARTCHAR itilde
ENCODING 181
SWIDTH 600 0
DWIDTH 15 0
BBX 12 15 2 0
BITMAP
0E20
1BE0
11C0
0000
1F80
1F80
1F80
0300
0300
0700
0700
0600
7FE0
FFF0
FFE0
ENDCHAR

STARTCHAR lcommaaccent
ENCODING 182
SWIDTH 600 0
DWIDTH 15 0
BBX 12 22 2 -6
BITMAP
07C0
0FC0
0FC0
01C0
01C0
0180
0180
0380
0380
0300
0300
0700
0700
7FF0
FFF0
7FE0
0000
0E00
0E00
0400
1C00
0800
ENDCHAR

STARTCHAR caron
ENCODING 183
SWIDTH 600 0
DWIDTH 15 0
BBX 8 4 7 12
BITMAP
C3
EE
78
10
ENDCHAR

STARTCHAR commaaccent
ENCODING 184
SWIDTH 600 0
DWIDTH 15 0
BBX 4 5 6 -7
BITMAP
70
70
20
E0
40
ENDCHAR

STARTCHAR scaron
ENCODING 185
SWIDTH 600 0
DWIDTH 15 0
BBX 13 16 2 0
BITMAP
0208
03B8
01E0
0040
0000
03D0
0FF8
1F70
3830
3F80
1FE0
00F0
6070
73E0
FFC0
CF00
ENDCHAR

STARTCHAR emacron
ENCODING 186
SWIDTH 600 0
DWIDTH 15 0
BBX 14 14 1 0
BITMAP
03FC
0000
0000
03E0
1FF0
3FF8
701C
7FFC
FFFC
FFF8
E000
7FF8
3FF0
0F80
ENDCHAR

STARTCHAR gcommaaccent
ENCODING 187
SWIDTH 600 0
DWIDTH 15 0
BBX 15 23 2 -5
BITMAP
0020
0040
0080
01C0
01C0
0080
0000
0FFE
1FFE
3FFC
7070
6030
E030
E070
E0F0
7FE0
7FE0
1EE0
00E0
01C0
3FC0
7F00
7C00
ENDCHAR

STARTCHAR afii253
ENCODING 188
SWIDTH 600 0
DWIDTH 15 0
BBX 13 15 2 0
BITMAP
0600
0600
0E00
0E00
3FF0
7FF8
3FF0
1C00
7FC0
FFC0
5F80
3810
3FF0
1FE0
0F00
ENDCHAR

STARTCHAR afii238
ENCODING 189
SWIDTH 600 0
DWIDTH 15 0
BBX 15 15 1 0
BITMAP
1CF0
3FFC
1F0E
1C0E
180E
180E
180E
380C
381C
301C
301C
7018
F8B8
F9F0
00C0
ENDCHAR

STARTCHAR zcaron
ENCODING 190
SWIDTH 600 0
DWIDTH 15 0
BBX 14 16 2 0
BITMAP
020C
0398
01F0
00C0
0000
1FF8
3FF8
3E70
39E0
03C0
0700
0E00
3820
7FF0
FFE0
FFE0
ENDCHAR

STARTCHAR afii254
ENCODING 191
SWIDTH 600 0
DWIDTH 15 0
BBX 14 16 1 -5
BITMAP
1EF0
3FF8
0FFC
1E1C
1C1C
1C18
1818
3838
7C38
FC30
7C30
0070
0070
1FE0
3FC0
3F00
ENDCHAR

STARTCHAR Amacron
ENCODING 192
SWIDTH 600 0
DWIDTH 15 0
BBX 16 18 0 0
BITMAP
01FC
0000
0000
07F0
07F0
06F8
01D8
01B8
03B8
0718
0618
0FFC
1FFC
1FFC
300C
FC3F
FC7F
FC3E
ENDCHAR

STARTCHAR Aacute
ENCODING 193
SWIDTH 600 0
DWIDTH 15 0
BBX 16 20 0 0
BITMAP
0004
0018
0030
0060
0000
07F0
07F0
06F0
01D8
01B8
03B8
0718
0618
0FFC
1FFC
1FFC
300C
FC3F
FC7F
FC3E
ENDCHAR

STARTCHAR Acircumflex
ENCODING 194
SWIDTH 600 0
DWIDTH 15 0
BBX 16 19 0 0
BITMAP
0070
00DC
038C
0000
07F0
07F0
06F0
01F8
01B8
03B8
0718
0618
0FFC
1FFC
1FFC
300C
FC3F
FC7F
FC3E
ENDCHAR

STARTCHAR Atilde
ENCODING 195
SWIDTH 600 0
DWIDTH 15 0
BBX 16 18 0 0
BITMAP
03E6
013C
0000
07F0
07F0
06F8
01D8
01B8
03B8
0718
0618
0FFC
1FFC
1FFC
300C
FC3F
FC7F
FC3E
ENDCHAR

STARTCHAR Adieresis
ENCODING 196
SWIDTH 600 0
DWIDTH 15 0
BBX 16 19 0 0
BITMAP
0086
01CE
0084
0000
03F0
07F8
03F8
00D8
01D8
0398
031C
061C
07FC
0FFC
1FFC
180E
7E3F
FE3F
7C3E
ENDCHAR

STARTCHAR Aring
ENCODING 197
SWIDTH 600 0
DWIDTH 15 0
BBX 17 20 -1 0
BITMAP
003C00
004400
004400
007800
000000
03F800
07F800
03FC00
00FC00
01DC00
01DC00
039C00
070E00
07FE00
0FFE00
0FFE00
180600
7E1F80
FE3F80
7C3F00
ENDCHAR

STARTCHAR AE
ENCODING 198
SWIDTH 600 0
DWIDTH 15 0
BBX 18 15 0 0
BITMAP
03FFC0
07FFC0
01BFC0
037180
036180
066D80
067C00
0CFC00
0FEC00
1FD800
18C300
31C300
FBFF00
FFFF00
FBFF00
ENDCHAR

STARTCHAR Iogonek
ENCODING 199
SWIDTH 600 0
DWIDTH 15 0
BBX 13 18 2 -3
BITMAP
1FF8
1FF8
1FF8
0380
0380
0300
0300
0700
0700
0600
0600
0600
7FC0
FFE0
6FC0
1800
1F00
0E00
ENDCHAR

STARTCHAR Ccaron
ENCODING 200
SWIDTH 600 0
DWIDTH 15 0
BBX 15 19 2 0
BITMAP
0106
01DC
00F0
0020
01E0
07FE
1FFE
3C1E
380C
700C
6000
6000
E000
E000
E000
7038
7FF8
3FE0
0F80
ENDCHAR

STARTCHAR Eacute
ENCODING 201
SWIDTH 600 0
DWIDTH 15 0
BBX 15 20 1 0
BITMAP
0008
0018
0070
00C0
0000
1FFE
3FFE
1FFE
0C0E
0C4C
1CE4
1FC0
1FC0
1FC0
19C8
381C
301C
FFF8
FFF8
FFF8
ENDCHAR

STARTCHAR Eogonek
ENCODING 202
SWIDTH 600 0
DWIDTH 15 0
BBX 16 18 1 -3
BITMAP
1FFF
3FFE
1FF6
0E0E
0C4E
0CE4
1FE0
1FC0
1FC0
18C8
181C
381C
7FF8
FFF8
7FB8
0060
007C
0038
ENDCHAR

STARTCHAR Edieresis
ENCODING 203
SWIDTH 600 0
DWIDTH 15 0
BBX 16 19 0 0
BITMAP
0086
01CE
0084
0000
0FFF
1FFF
1FFE
0606
0E26
0E64
0FE0
0FE0
0FE0
1CC4
1C0C
180C
7FFC
FFFC
7FF8
ENDCHAR

STARTCHAR Edotaccent
ENCODING 204
SWIDTH 600 0
DWIDTH 15 0
BBX 16 19 1 0
BITMAP
0030
0070
0060
0000
1FFF
3FFE
1FF6
0E0E
0C4E
0CE4
1FE0
1FC0
1EC0
19C8
381C
381C
7FF8
FFF8
FFF8
ENDCHAR

STARTCHAR Iacute
ENCODING 205
SWIDTH 600 0
DWIDTH 15 0
BBX 14 20 2 0
BITMAP
0010
0070
00C0
0180
0000
0FFC
1FFC
1FF8
0180
0380
0380
0380
0300
0300
0700
0700
0600
7FE0
FFE0
7FC0
ENDCHAR

STARTCHAR Icircumflex
ENCODING 206
SWIDTH 600 0
DWIDTH 15 0
BBX 14 19 2 0
BITMAP
00E0
03B0
0638
0000
0FFC
1FFC
1FF8
0180
0380
0380
0380
0300
0300
0700
0700
0600
7FE0
FFE0
7FC0
ENDCHAR

STARTCHAR Imacron
ENCODING 207
SWIDTH 600 0
DWIDTH 15 0
BBX 14 18 2 0
BITMAP
07F8
0000
0000
0FFC
1FFC
1FF8
0180
0380
0380
0380
0300
0300
0700
0700
0600
7FE0
FFE0
7FC0
ENDCHAR

STARTCHAR Eth
ENCODING 208
SWIDTH 600 0
DWIDTH 15 0
BBX 15 15 0 0
BITMAP
0FF0
1FFC
1FFE
0E0E
0C06
0C06
3FC6
7F86
7F8E
180E
181C
383C
7FF8
FFF0
7F80
ENDCHAR

STARTCHAR Ncommaaccent
ENCODING 209
SWIDTH 600 0
DWIDTH 15 0
BBX 17 21 1 -6
BITMAP
3E1F00
3E3F80
3F1F00
1F0E00
1F0E00
1B8C00
1B8C00
39DC00
39DC00
38E800
30F800
30F800
FC7800
FC7800
F83000
000000
070000
070000
020000
0E0000
040000
ENDCHAR

STARTCHAR Omacron
ENCODING 210
SWIDTH 600 0
DWIDTH 15 0
BBX 15 17 2 0
BITMAP
03FC
0000
01E0
07F8
1FFC
1C1C
380E
700E
600E
E00E
E00C
E01C
E038
7070
7FE0
3FC0
0F00
ENDCHAR

STARTCHAR Kcommaaccent
ENCODING 211
SWIDTH 600 0
DWIDTH 15 0
BBX 17 21 1 -6
BITMAP
1F9F00
3FDF80
1F9F00
0E3C00
0CF000
0DE000
1F8000
1FE000
1EE000
187000
387000
383000
FE3C00
FE3E00
FC3C00
000000
070000
070000
020000
0E0000
040000
ENDCHAR

STARTCHAR Ocircumflex
ENCODING 212
SWIDTH 600 0
DWIDTH 15 0
BBX 15 19 2 0
BITMAP
0030
00F8
039C
0304
01E0
07F8
1FFC
1C1C
380E
700E
600E
E00E
E00C
E01C
E038
7070
7FE0
3FC0
0F00
ENDCHAR

STARTCHAR Otilde
ENCODING 213
SWIDTH 600 0
DWIDTH 15 0
BBX 15 18 2 0
BITMAP
01E6
03B4
0238
00C0
07F8
0FFC
1C1C
380E
700E
600E
E00E
E00C
E01C
E038
7070
7FE0
3FC0
0F00
ENDCHAR

STARTCHAR Odieresis
ENCODING 214
SWIDTH 600 0
DWIDTH 15 0
BBX 14 19 2 0
BITMAP
018C
039C
0108
0000
01C0
07F0
1FF8
3C38
301C
701C
601C
E01C
E018
E038
E030
7070
7FE0
3F80
0E00
ENDCHAR

STARTCHAR multiply
ENCODING 215
SWIDTH 600 0
DWIDTH 15 0
BBX 11 10 4 2
BITMAP
60E0
71C0
7B80
3F00
1E00
1E00
3F00
F380
E380
C180
ENDCHAR

STARTCHAR Oslash
ENCODING 216
SWIDTH 600 0
DWIDTH 15 0
BBX 18 17 0 -1
BITMAP
000040
0078C0
01FFC0
07F780
070F00
0E1F80
1C3D80
187380
38E380
39C300
3B8700
3F0E00
1E1E00
1FFC00
3FF000
F3C000
600000
ENDCHAR

STARTCHAR Uogonek
ENCODING 217
SWIDTH 600 0
DWIDTH 15 0
BBX 16 19 2 -4
BITMAP
7E3E
7F7F
7E7E
301C
3018
7018
7038
7038
6030
E030
E070
E070
71E0
7FC0
3F80
0C00
0C80
0F80
0700
ENDCHAR

STARTCHAR Uacute
ENCODING 218
SWIDTH 600 0
DWIDTH 15 0
BBX 15 20 3 0
BITMAP
0010
0070
00C0
0180
0000
7E7E
7EFE
7C7C
3018
7038
7038
7030
6030
6070
E070
E060
E0E0
7FC0
3F80
1E00
ENDCHAR

STARTCHAR Ucircumflex
ENCODING 219
SWIDTH 600 0
DWIDTH 15 0
BBX 15 19 3 0
BITMAP
00C0
03B8
0630
0000
7E7E
7EFE
7C7C
3018
7038
7038
7030
6030
6070
E070
E060
E0E0
7FC0
3F80
1E00
ENDCHAR

STARTCHAR Udieresis
ENCODING 220
SWIDTH 600 0
DWIDTH 15 0
BBX 15 19 2 0
BITMAP
0218
0738
0610
0000
7F7E
7E7E
7E7C
3018
3038
7038
7038
6030
6030
E070
E070
F0E0
7FC0
3F80
1E00
ENDCHAR

STARTCHAR Utilde
ENCODING 221
SWIDTH 600 0
DWIDTH 15 0
BBX 15 18 3 0
BITMAP
0790
09E0
0000
7E7E
7EFE
7C7C
3018
7038
7038
7030
6030
6070
E070
E060
E0E0
7FC0
3F80
1E00
ENDCHAR

STARTCHAR Umacron
ENCODING 222
SWIDTH 600 0
DWIDTH 15 0
BBX 15 18 3 0
BITMAP
07F8
0000
0000
7E7E
7EFE
7C7C
3018
7038
7038
7030
6030
6070
E070
E060
E0E0
7FC0
3F80
1E00
ENDCHAR

STARTCHAR germandbls
ENCODING 223
SWIDTH 600 0
DWIDTH 15 0
BBX 14 16 1 0
BITMAP
01E0
03F0
07F8
0E38
0E38
0C70
0DF0
1DF0
1C38
181C
181C
381C
3B18
FFF8
FBF0
F9C0
ENDCHAR

STARTCHAR amacron
ENCODING 224
SWIDTH 600 0
DWIDTH 15 0
BBX 14 14 1 0
BITMAP
03FC
0000
0000
07E0
1FF0
1C78
0038
1FF0
7FB0
7070
E0F0
FFF8
7FF8
1C78
ENDCHAR

STARTCHAR aacute
ENCODING 225
SWIDTH 600 0
DWIDTH 15 0
BBX 13 16 1 0
BITMAP
0018
0030
00E0
00C0
0000
03E0
1FF0
1C78
0038
1FF0
7FB0
7070
E0F0
FFF8
7FF8
1C78
ENDCHAR

STARTCHAR acircumflex
ENCODING 226
SWIDTH 600 0
DWIDTH 15 0
BBX 14 16 1 0
BITMAP
0020
00F0
03BC
0318
0000
03E0
1FF0
1C78
0038
1FF0
7FB0
7070
E0F0
FFF8
7FF8
1C78
ENDCHAR

STARTCHAR atilde
ENCODING 227
SWIDTH 600 0
DWIDTH 15 0
BBX 14 15 1 0
BITMAP
03C4
076C
0278
0000
07E0
1FF0
1C78
0038
1FF0
7FF0
7070
E0F0
FFF8
7FF8
1C78
ENDCHAR

STARTCHAR adieresis
ENCODING 228
SWIDTH 600 0
DWIDTH 15 0
BBX 14 16 1 0
BITMAP
018C
039C
0308
0000
0000
03E0
1FF0
1E38
0038
1FF0
3FF0
7030
E0F0
FFF8
7FF8
1E78
ENDCHAR

STARTCHAR aring
ENCODING 229
SWIDTH 600 0
DWIDTH 15 0
BBX 13 17 1 0
BITMAP
00E0
0190
0110
0130
00E0
0000
07E0
1FF0
1C78
0038
1FF0
7FF0
7070
E0F0
FFF8
7FF8
3CF8
ENDCHAR

STARTCHAR ae
ENCODING 230
SWIDTH 600 0
DWIDTH 15 0
BBX 17 11 0 0
BITMAP
038E00
1FDF00
1FFF80
00C380
0FFF80
3FFF80
7DFF00
E1C000
FFFF00
7FFE00
387000
ENDCHAR

STARTCHAR iogonek
ENCODING 231
SWIDTH 600 0
DWIDTH 15 0
BBX 12 19 2 -3
BITMAP
01C0
01C0
01C0
0000
0000
0F80
1F80
0F80
0380
0300
0300
0300
0700
7FF0
FFF0
77E0
0C00
0F80
0700
ENDCHAR

STARTCHAR ccaron
ENCODING 232
SWIDTH 600 0
DWIDTH 15 0
BBX 14 15 2 0
BITMAP
031C
01F0
00E0
0000
03CC
1FF8
3F78
7838
7010
E000
E000
E018
7FF0
3FE0
0F80
ENDCHAR

STARTCHAR eacute
ENCODING 233
SWIDTH 600 0
DWIDTH 15 0
BBX 14 16 1 0
BITMAP
0008
0038
0060
00C0
0000
03C0
0FF0
3FF8
701C
7FFC
FFFC
FFF8
E000
7FF8
3FF0
0F80
ENDCHAR

STARTCHAR eogonek
ENCODING 234
SWIDTH 600 0
DWIDTH 15 0
BBX 13 14 2 -3
BITMAP
03C0
1FF0
3FF8
6018
7FF8
FFF8
FFF8
E000
7FF8
3FF0
0700
0C00
0F80
0700
ENDCHAR

STARTCHAR edieresis
ENCODING 235
SWIDTH 600 0
DWIDTH 15 0
BBX 14 16 2 0
BITMAP
0318
071C
0218
0000
0000
07C0
1FF0
3FF8
6038
7FF8
FFF8
FFF8
E000
7FF0
3FF0
1F00
ENDCHAR

STARTCHAR edotaccent
ENCODING 236
SWIDTH 600 0
DWIDTH 15 0
BBX 13 16 2 0
BITMAP
0060
00E0
00E0
0000
0000
07C0
1FF0
3FF8
6018
7FF8
FFF8
FFF8
E000
7FF0
3FF0
0F80
ENDCHAR

STARTCHAR iacute
ENCODING 237
SWIDTH 600 0
DWIDTH 15 0
BBX 12 16 2 0
BITMAP
0030
00E0
0180
0100
0000
1F80
1F80
1F80
0300
0300
0700
0700
0600
7FE0
FFF0
FFE0
ENDCHAR

STARTCHAR icircumflex
ENCODING 238
SWIDTH 600 0
DWIDTH 15 0
BBX 12 16 2 0
BITMAP
00C0
01E0
0F70
0410
0000
1F80
1F80
1F80
0300
0300
0700
0700
0600
7FE0
FFF0
FFE0
ENDCHAR

STARTCHAR imacron
ENCODING 239
SWIDTH 600 0
DWIDTH 15 0
BBX 12 14 2 0
BITMAP
07F0
0000
0000
1F80
1F80
1F80
0300
0300
0700
0700
0600
7FE0
FFF0
FFE0
ENDCHAR

STARTCHAR dcroat
ENCODING 240
SWIDTH 600 0
DWIDTH 15 0
BBX 16 16 2 0
BITMAP
001E
003E
000C
003F
03CC
0FFC
1FFC
3878
7038
6038
E038
E038
E070
71FC
7FFC
1FB8
ENDCHAR

STARTCHAR ncommaaccent
ENCODING 241
SWIDTH 600 0
DWIDTH 15 0
BBX 14 17 1 -6
BITMAP
1EF0
3FF8
0FFC
1E1C
1C1C
1818
1818
3838
7C78
FCFC
7878
0000
0700
0700
0200
0E00
0400
ENDCHAR

STARTCHAR omacron
ENCODING 242
SWIDTH 600 0
DWIDTH 15 0
BBX 14 14 2 0
BITMAP
03FC
0000
0000
03E0
0FF0
3FF8
783C
601C
E01C
E018
F078
7FF0
3FC0
0F00
ENDCHAR

STARTCHAR kcommaaccent
ENCODING 243
SWIDTH 600 0
DWIDTH 15 0
BBX 14 22 2 -6
BITMAP
0E00
3E00
1E00
0E00
0C00
0CFC
1CFC
1DF8
1DC0
1F00
1F00
3B80
3BC0
F0F8
F1F8
F0F0
0000
0E00
0E00
0400
1C00
0800
ENDCHAR

STARTCHAR ocircumflex
ENCODING 244
SWIDTH 600 0
DWIDTH 15 0
BBX 14 16 2 0
BITMAP
0020
00F0
01D8
030C
0000
03C0
0FF0
3FF8
783C
601C
E01C
E018
F078
7FF0
3FC0
0F00
ENDCHAR

STARTCHAR otilde
ENCODING 245
SWIDTH 600 0
DWIDTH 15 0
BBX 14 15 2 0
BITMAP
01C4
076C
0238
0000
03E0
0FF0
3FF8
783C
601C
E01C
E018
F078
7FF0
3FC0
0F00
ENDCHAR

STARTCHAR odieresis
ENCODING 246
SWIDTH 600 0
DWIDTH 15 0
BBX 14 15 2 0
BITMAP
018C
039C
0108
0000
03C0
0FF0
3FF8
783C
701C
E01C
E018
F038
7FF0
3FC0
0F00
ENDCHAR

STARTCHAR divide
ENCODING 247
SWIDTH 600 0
DWIDTH 15 0
BBX 13 15 3 0
BITMAP
0180
0380
0300
0000
0000
0000
FFF0
FFF8
FFF0
0000
0000
0000
0600
0E00
0400
ENDCHAR

STARTCHAR oslash
ENCODING 248
SWIDTH 600 0
DWIDTH 15 0
BBX 16 13 1 -1
BITMAP
0003
01E7
07FE
1FBC
3C7E
30EE
73CE
778C
7C3C
3FF8
7FF0
E780
C000
ENDCHAR

STARTCHAR uogonek
ENCODING 249
SWIDTH 600 0
DWIDTH 15 0
BBX 13 14 3 -3
BITMAP
F8F8
F1F0
F0B0
7070
7070
6060
6060
E1E0
FFE0
7FF0
38E0
0180
01F0
00E0
ENDCHAR

STARTCHAR uacute
ENCODING 250
SWIDTH 600 0
DWIDTH 15 0
BBX 13 16 2 0
BITMAP
0018
0070
00C0
0080
0000
7878
F8F8
78F8
3830
3030
3070
7070
7060
73F8
7FF0
1C00
ENDCHAR

STARTCHAR ucircumflex
ENCODING 251
SWIDTH 600 0
DWIDTH 15 0
BBX 13 16 2 0
BITMAP
0060
00F0
03B8
0208
0000
7878
F8F8
78F8
3830
3030
3070
7070
7060
73F8
7FF0
1C00
ENDCHAR

STARTCHAR udieresis
ENCODING 252
SWIDTH 600 0
DWIDTH 15 0
BBX 13 16 3 0
BITMAP
0218
0738
0610
0000
0000
78F0
F1F0
70F0
3070
7060
7060
6060
60E0
77F0
7FF0
1800
ENDCHAR

STARTCHAR utilde
ENCODING 253
SWIDTH 600 0
DWIDTH 15 0
BBX 12 15 3 0
BITMAP
0E20
1BE0
11C0
0000
F0F0
F1F0
F0F0
7070
6060
6060
60E0
E1E0
FFE0
7EF0
39E0
ENDCHAR

STARTCHAR umacron
ENCODING 254
SWIDTH 600 0
DWIDTH 15 0
BBX 14 14 2 0
BITMAP
03FC
0000
0000
7878
F8F8
78F8
3830
3030
3070
7070
7060
73F8
7FF0
1C00
ENDCHAR

STARTCHAR dotaccent
ENCODING 255
SWIDTH 600 0
DWIDTH 15 0
BBX 3 3 9 13
BITMAP
60
E0
C0
ENDCHAR
ENDFONT
